<svg xmlns="http://www.w3.org/2000/svg" height="24px" width="24px">
  <defs>
    <symbol id="add_icon" viewBox="0 -960 960 960">
      <title>add icon</title>
      <path fill="inherit" d="M440-440H200v-80h240v-240h80v240h240v80H520v240h-80v-240Z"/>
    </symbol>

    <symbol id="close_icon" viewBox="0 -960 960 960">
      <title>close icon</title>
      <path fill="inherit" d="M256-227.69 227.69-256l224-224-224-224L256-732.31l224 224 224-224L732.31-704l-224 224 224 224L704-227.69l-224-224-224 224Z"/>
    </symbol>

    <symbol id="delete_icon" viewBox="0 -960 960 960">
      <title>delete icon</title>
      <path fill="inherit" d="M280-120q-33 0-56.5-23.5T200-200v-520h-40v-80h200v-40h240v40h200v80h-40v520q0 33-23.5 56.5T680-120H280Zm400-600H280v520h400v-520ZM360-280h80v-360h-80v360Zm160 0h80v-360h-80v360ZM280-720v520-520Z"/>
    </symbol>

    <symbol id="edit_icon" viewBox="0 -960 960 960">
      <title>edit icon</title>
      <path fill="inherit" d="M200-200h57l391-391-57-57-391 391v57Zm-80 80v-170l528-527q12-11 26.5-17t30.5-6q16 0 31 6t26 18l55 56q12 11 17.5 26t5.5 30q0 16-5.5 30.5T817-647L290-120H120Zm640-584-56-56 56 56Zm-141 85-28-29 57 57-29-28Z"/>
    </symbol>

    <symbol id="search_icon" viewBox="0 -960 960 960">
      <title>search icon</title>
      <path fill="inherit" d="M779.38-153.85 528.92-404.31q-30 25.54-69 39.54t-78.38 14q-96.1 0-162.67-66.53-66.56-66.53-66.56-162.57 0-96.05 66.53-162.71 66.53-66.65 162.57-66.65 96.05 0 162.71 66.56Q610.77-676.1 610.77-580q0 41.69-14.77 80.69t-38.77 66.69l250.46 250.47-28.31 28.3ZM381.54-390.77q79.61 0 134.42-54.81 54.81-54.8 54.81-134.42 0-79.62-54.81-134.42-54.81-54.81-134.42-54.81-79.62 0-134.42 54.81-54.81 54.8-54.81 134.42 0 79.62 54.81 134.42 54.8 54.81 134.42 54.81Z"/>
    </symbol>
  </defs>
</svg>
